Patient4_TMGait_0pt5_02_left_35_GRF.mot
version=1
nRows=78
nColumns=19
inDegrees=no
endheader
time	F1x	F1y	F1z	M1x	M1y	M1z	F2x	F2y	F2z	M2x	M2y	M2z	EC1x	EC1y	EC1z	EC2x	EC2y	EC2z
45.05	14.0398	-9.2451	9.3578	-0.84077	-1.1489	-16.5729	-32.5295	745.3439	-53.297	296.3253	67.2876	759.9123	-0.0592	0.0182	-0.0073	-0.0462	0.0165	0.9585
45.0629	9.54	-5.4511	6.2824	-0.8643	-0.78006	-10.4078	-29.2713	745.2992	-52.3135	296.3451	64.4459	755.8153	-0.0592	0.0182	-0.0073	-0.0462	0.0165	0.9585
45.0759	5.6906	-2.2233	3.681	-0.89518	-0.46843	-5.1474	-25.9905	746.2515	-51.4115	296.7693	61.7026	752.3092	-0.0592	0.0182	-0.0073	-0.0462	0.0165	0.9585
45.0888	2.7083	0.26463	1.7051	-0.9331	-0.24408	-1.079	-22.9202	748.5054	-50.6216	297.7072	59.1932	749.8866	-0.0592	0.0182	-0.0073	-0.0462	0.0165	0.9585
45.1017	0.61953	2.0097	0.33711	-0.97393	-0.093705	1.7715	-20.2146	752.0955	-49.9846	299.1603	57.0161	748.7324	-0.0592	0.0182	-0.0073	-0.0462	0.0165	0.9585
45.1146	-0.71495	3.1125	-0.50636	-1.0105	-0.0169	3.5766	-17.9298	756.7794	-49.4921	301.0247	55.1788	748.7066	-0.0592	0.0182	-0.0073	-0.0462	0.0165	0.9585
45.1276	-1.4687	3.6856	-0.9605	-1.0278	0.016905	4.5381	-16.036	762.1041	-49.1527	303.1174	53.6672	749.4109	-0.0592	0.0182	-0.0073	-0.0462	0.0165	0.9585
45.1405	-1.8206	3.8171	-1.1351	-0.99991	0.015836	4.8273	-14.4546	767.498	-48.9503	305.212	52.4254	750.2993	-0.0592	0.0182	-0.0073	-0.0462	0.0165	0.9585
45.1534	-1.9385	3.5666	-1.1488	-0.89723	0.0022321	4.5824	-13.067	772.3193	-48.8878	307.0598	51.4043	750.7325	-0.0592	0.0182	-0.0073	-0.0462	0.0165	0.9585
45.1664	-1.918	2.9219	-1.0698	-0.67973	-0.018759	3.8373	-11.76	775.9579	-48.939	308.4265	50.5297	750.1047	-0.0592	0.0182	-0.0073	-0.0462	0.0165	0.9585
45.1793	-1.8435	1.8555	-0.9637	-0.31151	-0.031512	2.6149	-10.3967	777.8876	-49.0828	309.113	49.7295	747.8804	-0.0592	0.0182	-0.0073	-0.0462	0.0165	0.9585
45.1922	-1.7293	0.30477	-0.85464	0.24454	-0.030923	0.86129	-8.8789	777.7604	-49.2584	308.9887	48.9112	743.7119	-0.0592	0.0182	-0.0073	-0.0462	0.0165	0.9585
45.2051	-1.5766	-1.7405	-0.76928	1.0013	0.000638	-1.4119	-7.1337	775.3978	-49.4273	307.9863	48.0141	737.4259	-0.0592	0.0182	-0.0073	-0.0462	0.0165	0.9585
45.2181	-1.3363	-4.2124	-0.70797	1.9328	0.079394	-4.1345	-5.1179	770.7818	-49.5676	306.0975	47.0015	729.0161	-0.0592	0.0182	-0.0073	-0.0462	0.0165	0.9585
45.231	-0.93908	-6.875	-0.67052	2.9434	0.23149	-7.0539	-2.8409	764.1232	-49.6937	303.3979	45.8858	718.7245	-0.0592	0.0182	-0.0073	-0.0462	0.0165	0.9585
45.2439	-0.29455	-9.2264	-0.64896	3.8345	0.48777	-9.633	-0.30642	755.8588	-49.8216	300.0504	44.678	706.9993	-0.0592	0.0182	-0.0073	-0.0462	0.0165	0.9585
45.2569	0.72271	-10.4174	-0.63145	4.274	0.88391	-10.9662	2.4386	746.5899	-49.9718	296.2802	43.4058	694.458	-0.0592	0.0182	-0.0073	-0.0462	0.0165	0.9585
45.2698	2.1933	-9.1553	-0.61489	3.7608	1.4491	-9.6546	5.363	736.9161	-50.132	292.3184	42.0688	681.6875	-0.0592	0.0182	-0.0073	-0.0462	0.0165	0.9585
45.2827	4.1784	-3.6956	-0.59323	1.6168	2.192	-3.8287	8.4089	727.3237	-50.2817	288.3496	40.6749	669.1868	-0.0592	0.0182	-0.0073	-0.0462	0.0165	0.9585
45.2956	6.6033	8.127	-0.56226	-3	3.0704	8.8685	11.4956	717.9569	-50.3739	284.4256	39.2233	657.1446	-0.0592	0.0182	-0.0073	-0.0462	0.0165	0.9585
45.3086	9.2325	28.6578	-0.50025	-11.0048	3.9558	30.979	14.4949	708.4757	-50.3692	280.4043	37.7397	645.3245	-0.0592	0.0182	-0.0073	-0.0462	0.0165	0.9585
45.3215	11.547	60.0019	-0.39065	-23.2158	4.6132	64.7967	17.2378	698.008	-50.1981	275.9358	36.2358	633.0216	-0.0592	0.0182	-0.0073	-0.0462	0.0165	0.9585
45.3344	12.6682	103.2415	-0.21009	-40.051	4.6673	111.524	19.5499	685.2182	-49.7784	270.4971	34.7144	619.1037	-0.0592	0.0182	-0.0073	-0.0462	0.0165	0.9585
45.3474	11.375	157.3444	0.067756	-61.1083	3.6122	170.0857	21.2601	668.5698	-48.9745	263.4971	33.124	602.2447	-0.0592	0.0182	-0.0073	-0.0462	0.0165	0.9585
45.3603	6.5488	218.0752	0.5133	-84.7389	0.9593	235.9493	22.264	646.661	-47.6525	254.4157	31.3904	581.1936	-0.0592	0.0182	-0.0073	-0.0462	0.0165	0.9585
45.3732	-1.2179	277.9899	1.498	-108.0295	-3.4331	301.035	22.5145	618.7351	-45.7062	242.9938	29.4395	555.251	-0.0592	0.0182	-0.0073	-0.0462	0.0165	0.9585
45.3861	-9.6823	329.2027	3.801	-127.8788	-9.4624	356.6552	22.1164	585.051	-43.1552	229.373	27.2585	524.5379	-0.0592	0.0182	-0.0073	-0.0462	0.0165	0.9585
45.3991	-17.0789	367.8106	7.0133	-142.7617	-15.9838	398.3649	21.2578	546.9006	-40.1599	214.0808	24.9185	490.0676	-0.0592	0.0182	-0.0073	-0.0462	0.0165	0.9585
45.412	-22.502	394.3637	10.69	-152.8945	-22.1486	426.6729	20.1842	505.9983	-37.0243	197.7917	22.5877	453.2256	-0.0592	0.0182	-0.0073	-0.0462	0.0165	0.9585
45.4249	-25.7643	411.9289	14.1694	-159.5002	-27.1859	444.9128	19.1155	463.9265	-33.9998	181.1187	20.3969	415.3251	-0.0592	0.0182	-0.0073	-0.0462	0.0165	0.9585
45.4379	-27.2188	424.3692	17.243	-164.0931	-30.9992	457.3267	18.1826	421.9024	-31.1281	164.5329	18.3277	377.4175	-0.0592	0.0182	-0.0073	-0.0462	0.0165	0.9585
45.4508	-27.3757	435.2223	19.6917	-168.0667	-33.5751	467.6862	17.4549	380.7324	-28.3315	148.3439	16.2902	340.2279	-0.0592	0.0182	-0.0073	-0.0462	0.0165	0.9585
45.4637	-26.7409	447.49	21.6899	-172.5723	-35.2958	479.1946	16.8908	340.8052	-25.4844	132.6978	14.1898	304.1459	-0.0592	0.0182	-0.0073	-0.0462	0.0165	0.9585
45.4766	-25.6387	463.5677	23.3957	-178.5172	-36.4822	494.3426	16.3739	302.1637	-22.5456	117.6016	12.0299	269.252	-0.0592	0.0182	-0.0073	-0.0462	0.0165	0.9585
45.4896	-24.3534	485.0023	25.2401	-186.4539	-37.6875	514.7674	15.73	264.6603	-19.5617	102.9841	9.9045	235.4639	-0.0592	0.0182	-0.0073	-0.0462	0.0165	0.9585
45.5025	-23.0914	512.1273	27.5826	-196.4787	-39.3633	540.7462	14.766	228.1432	-16.6486	88.7701	7.9744	202.6857	-0.0592	0.0182	-0.0073	-0.0462	0.0165	0.9585
45.5154	-22.0958	544.3699	30.8471	-208.3317	-42.0179	571.677	13.3208	192.6482	-13.9242	74.9598	6.389	170.9682	-0.0592	0.0182	-0.0073	-0.0462	0.0165	0.9585
45.5284	-21.4153	580.7788	35.0464	-221.6395	-45.6836	606.5044	11.3511	158.5285	-11.4823	61.6812	5.2352	140.608	-0.0592	0.0182	-0.0073	-0.0462	0.0165	0.9585
45.5413	-21.0737	620.1992	39.9487	-235.9665	-50.126	644.0141	8.9592	126.4445	-9.3627	49.1854	4.4963	112.1588	-0.0592	0.0182	-0.0073	-0.0462	0.0165	0.9585
45.5542	-20.9792	661.0265	45.0955	-250.7251	-54.8444	682.5228	6.3929	97.1855	-7.5707	37.7795	4.0705	86.2718	-0.0592	0.0182	-0.0073	-0.0462	0.0165	0.9585
45.5671	-20.9806	701.1769	50.1383	-265.1405	-59.4319	719.9208	3.9275	71.4451	-6.0652	27.7383	3.8104	63.5183	-0.0592	0.0182	-0.0073	-0.0462	0.0165	0.9585
45.5801	-20.9558	738.2749	54.7579	-278.3315	-63.5235	753.8437	1.7917	49.6965	-4.7808	19.2531	3.5756	44.2896	-0.0592	0.0182	-0.0073	-0.0462	0.0165	0.9585
45.593	-20.7586	770.0611	58.7954	-289.4613	-66.9177	782.0701	0.12396	32.1396	-3.6442	12.4083	3.2541	28.7549	-0.0592	0.0182	-0.0073	-0.0462	0.0165	0.9585
45.6059	-20.2892	794.7732	62.0794	-297.8887	-69.4167	802.9282	-1.0014	18.7118	-2.6167	7.1818	2.7928	16.8601	-0.0592	0.0182	-0.0073	-0.0462	0.0165	0.9585
45.6189	-19.4148	811.3499	64.5226	-303.2398	-70.9063	815.4427	-1.5827	9.1148	-1.7027	3.4561	2.2071	8.3407	-0.0592	0.0182	-0.0073	-0.0462	0.0165	0.9585
45.6318	-18.0908	819.5164	66.0292	-305.4383	-71.2812	819.4413	-1.7482	2.8515	-0.94825	1.0334	1.5941	2.7652	-0.0592	0.0182	-0.0073	-0.0462	0.0165	0.9585
45.6447	-16.2642	819.7635	66.5972	-304.6909	-70.5349	815.4917	-1.6598	-0.75809	-0.39588	-0.35369	1.0601	-0.46836	-0.0592	0.0182	-0.0073	-0.0462	0.0165	0.9585
45.6576	-13.9554	813.2726	66.2618	-301.4602	-68.7153	804.8397	-1.4502	-2.4361	-0.027976	-0.98934	0.64091	-1.9858	-0.0592	0.0182	-0.0073	-0.0462	0.0165	0.9585
45.6706	-11.2068	801.7713	65.1666	-296.405	-65.9893	789.2437	-1.1968	-2.8612	0.18096	-1.1369	0.34732	-2.389	-0.0592	0.0182	-0.0073	-0.0462	0.0165	0.9585
45.6835	-8.1187	787.2963	63.4983	-290.2957	-62.5754	770.7456	-0.96273	-2.552	0.27638	-1.0006	0.1635	-2.1292	-0.0592	0.0182	-0.0073	-0.0462	0.0165	0.9585
45.6964	-4.823	771.9374	61.5071	-283.9101	-58.7682	751.4423	-0.76477	-1.8916	0.29006	-0.73061	0.071032	-1.5533	-0.0592	0.0182	-0.0073	-0.0462	0.0165	0.9585
45.7094	-1.4636	757.5888	59.4083	-277.95	-54.8282	733.1969	-0.62129	-1.1292	0.26037	-0.42432	0.041793	-0.8726	-0.0592	0.0182	-0.0073	-0.0462	0.0165	0.9585
45.7223	1.7787	745.7909	57.4093	-272.9787	-51.0217	717.5289	-0.52561	-0.40714	0.20905	-0.1376	0.05236	-0.20836	-0.0592	0.0182	-0.0073	-0.0462	0.0165	0.9585
45.7352	4.7639	737.562	55.642	-269.3722	-47.5343	705.4156	-0.46154	0.20808	0.15611	0.10481	0.076019	0.37114	-0.0592	0.0182	-0.0073	-0.0462	0.0165	0.9585
45.7481	7.3731	733.3584	54.2162	-267.2946	-44.5267	697.2966	-0.42533	0.70499	0.1118	0.2984	0.10115	0.85418	-0.0592	0.0182	-0.0073	-0.0462	0.0165	0.9585
45.7611	9.5543	733.0678	53.1479	-266.7041	-42.0425	693.0187	-0.39842	1.0898	0.081495	0.44715	0.11875	1.2322	-0.0592	0.0182	-0.0073	-0.0462	0.0165	0.9585
45.774	11.2939	736.1137	52.442	-267.3853	-40.0943	691.9853	-0.39236	1.3861	0.062344	0.56074	0.13093	1.5328	-0.0592	0.0182	-0.0073	-0.0462	0.0165	0.9585
45.7869	12.6442	741.6104	52.032	-269.0134	-38.606	693.3031	-0.39755	1.6024	0.05358	0.64493	0.13418	1.7577	-0.0592	0.0182	-0.0073	-0.0462	0.0165	0.9585
45.7999	13.6827	748.5346	51.8728	-271.2122	-37.5085	695.9612	-0.42823	1.7508	0.047327	0.70388	0.14337	1.9235	-0.0592	0.0182	-0.0073	-0.0462	0.0165	0.9585
45.8128	14.5246	755.8828	51.874	-273.6143	-36.6758	698.9737	-0.4798	1.826	0.038006	0.73477	0.16515	2.0166	-0.0592	0.0182	-0.0073	-0.0462	0.0165	0.9585
45.8257	15.2985	762.7834	51.9925	-275.8978	-36.0202	701.4902	-0.55137	1.7972	0.021966	0.7246	0.20347	1.9973	-0.0592	0.0182	-0.0073	-0.0462	0.0165	0.9585
45.8386	16.1665	768.5915	52.1572	-277.825	-35.4221	702.8786	-0.64808	1.6077	0.0005257	0.64971	0.25653	1.8014	-0.0592	0.0182	-0.0073	-0.0462	0.0165	0.9585
45.8516	17.2797	772.8966	52.3386	-279.243	-34.7975	702.7306	-0.76151	1.1673	-0.024329	0.47488	0.31927	1.3296	-0.0592	0.0182	-0.0073	-0.0462	0.0165	0.9585
45.8645	18.7877	775.5167	52.4849	-280.0793	-34.0424	700.8544	-0.89249	0.38731	-0.051527	0.16341	0.39102	0.49298	-0.0592	0.0182	-0.0073	-0.0462	0.0165	0.9585
45.8774	20.8017	776.4211	52.5869	-280.3132	-33.1	697.215	-1.0072	-0.8328	-0.079706	-0.32262	0.46219	-0.82276	-0.0592	0.0182	-0.0073	-0.0462	0.0165	0.9585
45.8904	23.3959	775.706	52.623	-279.97	-31.9192	691.9113	-1.0811	-2.5213	-0.10853	-0.99678	0.52195	-2.6426	-0.0592	0.0182	-0.0073	-0.0462	0.0165	0.9585
45.9033	26.572	773.5442	52.6026	-279.1007	-30.5001	685.137	-1.051	-4.6474	-0.12868	-1.8451	0.53467	-4.9442	-0.0592	0.0182	-0.0073	-0.0462	0.0165	0.9585
45.9162	30.2768	770.1143	52.5332	-277.7593	-28.8667	677.1343	-0.85338	-7.0478	-0.12673	-2.7999	0.45554	-7.5409	-0.0592	0.0182	-0.0073	-0.0462	0.0165	0.9585
45.9291	34.3715	765.5486	52.4482	-275.9828	-27.0989	668.1389	-0.38703	-9.3487	-0.080851	-3.7095	0.22036	-10.0217	-0.0592	0.0182	-0.0073	-0.0462	0.0165	0.9585
45.9421	38.6792	759.988	52.3839	-273.8083	-25.2981	658.3956	0.46963	-10.8664	0.045666	-4.3007	-0.25467	-11.6548	-0.0592	0.0182	-0.0073	-0.0462	0.0165	0.9585
45.955	43.0044	753.606	52.3791	-271.2883	-23.5723	648.1647	1.8277	-10.531	0.29377	-4.1491	-1.0506	-11.2839	-0.0592	0.0182	-0.0073	-0.0462	0.0165	0.9585
45.9679	47.1583	746.5706	52.4781	-268.4806	-22.0296	637.6894	3.7854	-6.8529	0.70961	-2.6609	-2.2434	-7.2966	-0.0592	0.0182	-0.0073	-0.0462	0.0165	0.9585
45.9809	50.9854	738.9417	52.6853	-265.4137	-20.7297	627.0818	6.3314	2.0722	1.3191	0.92127	-3.8491	2.3942	-0.0592	0.0182	-0.0073	-0.0462	0.0165	0.9585
45.9938	54.3502	730.5404	52.9546	-262.039	-19.6837	616.2221	9.3157	18.4059	2.1337	7.4576	-5.8079	20.1446	-0.0592	0.0182	-0.0073	-0.0462	0.0165	0.9585
46.0067	57.154	720.8318	53.1275	-258.19	-18.7985	604.6744	12.3113	44.2389	3.1022	17.7767	-7.8886	48.2354	-0.0592	0.0182	-0.0073	-0.0462	0.0165	0.9585
46.0196	59.3097	708.8489	52.9859	-253.5506	-17.931	591.6472	14.5464	80.9514	4.1031	32.4245	-9.647	88.1635	-0.0592	0.0182	-0.0073	-0.0462	0.0165	0.9585
46.0326	60.7242	693.2639	52.2393	-247.6777	-16.8822	576.0642	14.8266	128.321	4.8925	51.3041	-10.3525	139.6768	-0.0592	0.0182	-0.0073	-0.0462	0.0165	0.9585
46.0455	61.2726	672.5786	50.6314	-240.0646	-15.4937	556.7193	11.7968	183.4843	5.163	73.2649	-9.1637	199.6327	-0.0592	0.0182	-0.0073	-0.0462	0.0165	0.9585
